<svg width="48" height="48" viewBox="0 0 48 48" fill="none" xmlns="http://www.w3.org/2000/svg">
<rect width="48" height="48" fill="#81B3D2"/>
<path d="M26.95 17.144C28.635 16.648 29.934 17.414 30.527 18.323C31.2 18.092 31.858 17.842 32.538 17.615C32.5249 18.3014 32.2117 18.9475 31.681 19.383C32.366 19.553 32.985 18.892 32.985 18.892C32.816 19.892 31.979 20.68 31.422 20.916C31.191 27.666 28.247 32.133 21.345 31.998H20.899C20.489 31.998 16.735 31.538 16.001 30.111C18.272 30.307 19.894 29.689 20.694 28.934C19.734 28.634 18.015 28.457 17.715 25.984C18.064 26.09 18.279 26.212 18.905 26.103C17.705 25.247 16.374 24.53 16.448 22.33C16.733 22.658 17.515 22.866 17.788 22.802C17.085 22.561 15.818 19.442 16.894 17.85C18.712 19.704 20.629 21.456 24.046 21.623C24.254 19.33 25.183 17.793 26.95 17.144Z" fill="white"/>
</svg>
