<svg width="296" height="81" viewBox="0 0 296 81" fill="none" xmlns="http://www.w3.org/2000/svg">
<path fill-rule="evenodd" clip-rule="evenodd" d="M6.69401 7.519C6.68918 8.14079 6.44867 8.73759 6.02102 9.189C5.78537 9.43115 5.50481 9.62511 5.19501 9.75999C4.86902 9.90599 4.50302 9.98 4.09901 9.98C3.65405 9.98149 3.2131 9.89587 2.80102 9.728C2.39841 9.56725 2.0364 9.31931 1.74102 9.002C1.48402 8.69415 1.2894 8.33922 1.16801 7.957C1.03158 7.54414 0.963348 7.1118 0.966018 6.677C0.966018 5.825 1.11602 5.037 1.42102 4.317C1.72404 3.59856 2.16464 2.94632 2.71802 2.397C2.96502 2.149 3.24502 1.92 3.56102 1.70599C3.87501 1.494 4.17302 1.313 4.45402 1.166C4.73402 1.022 4.97401 0.903992 5.17802 0.815994L5.23469 0.790466C5.40355 0.714432 5.50939 0.666763 5.55002 0.645996L6.89702 2.634C6.64902 2.724 6.37501 2.842 6.07101 2.987C5.76802 3.134 5.48102 3.313 5.21402 3.52499C4.94647 3.73698 4.71774 3.99379 4.53802 4.284C4.35902 4.57599 4.25802 4.914 4.23601 5.29599C4.88602 5.29599 5.46001 5.48599 5.95402 5.869C6.44702 6.25099 6.69401 6.799 6.69401 7.519ZM14.3601 8.39401C14.4731 8.10301 14.5301 7.81001 14.5301 7.51901H14.5311C14.5311 6.8 14.283 6.25101 13.7911 5.87001C13.297 5.48801 12.7231 5.298 12.0731 5.298C12.0961 4.91501 12.1961 4.57701 12.3761 4.285C12.5561 3.99301 12.7791 3.74001 13.049 3.52701C13.3191 3.313 13.606 3.134 13.909 2.98801C14.1784 2.8578 14.4537 2.74034 14.7341 2.63602L13.386 0.64801C13.342 0.670013 13.2191 0.728012 13.0161 0.815018C12.813 0.904007 12.5711 1.02301 12.2911 1.16701C11.983 1.32916 11.6848 1.50949 11.398 1.70702C11.0946 1.90854 10.8119 2.13968 10.5541 2.397C10.001 2.94659 9.56044 3.59877 9.25705 4.31702C8.95405 5.03702 8.80205 5.82501 8.80205 6.67702C8.7999 7.11179 8.86811 7.54404 9.00405 7.95702C9.12617 8.33891 9.32072 8.6937 9.57705 9.00201C9.87229 9.31924 10.2344 9.56688 10.6371 9.72701C11.0489 9.89452 11.4894 9.98012 11.9341 9.979C12.6564 9.98901 13.3513 9.7028 13.857 9.18701C14.0757 8.95871 14.2467 8.68913 14.3601 8.39401ZM271.253 66.235C271.253 65.941 271.31 65.649 271.423 65.358C271.535 65.065 271.703 64.802 271.926 64.566C272.162 64.3231 272.443 64.1288 272.753 63.994C273.078 63.848 273.443 63.774 273.848 63.774C274.298 63.774 274.73 63.858 275.146 64.026C275.56 64.196 275.916 64.436 276.207 64.753C276.454 65.045 276.644 65.393 276.779 65.797C276.915 66.201 276.981 66.627 276.981 67.078C276.981 67.928 276.83 68.717 276.526 69.436C276.223 70.1543 275.783 70.8066 275.23 71.356C274.972 71.6125 274.689 71.8439 274.387 72.047C274.1 72.2436 273.802 72.4239 273.494 72.587C273.214 72.731 272.974 72.851 272.768 72.939C272.706 72.9658 272.644 72.9934 272.582 73.0218L272.526 73.0479L272.496 73.0617C272.464 73.0772 272.431 73.093 272.398 73.109L271.048 71.119C271.298 71.029 271.572 70.912 271.876 70.767C272.179 70.621 272.466 70.441 272.733 70.228C273.001 70.016 273.23 69.7588 273.409 69.468C273.589 69.176 273.689 68.839 273.713 68.458C273.063 68.458 272.488 68.268 271.993 67.884C271.5 67.504 271.253 66.953 271.253 66.235ZM279.09 66.235C279.09 65.942 279.147 65.649 279.257 65.358C279.37 65.065 279.539 64.802 279.763 64.566C279.99 64.331 280.263 64.138 280.588 63.994C280.915 63.849 281.278 63.774 281.684 63.774C282.134 63.774 282.567 63.858 282.981 64.026C283.398 64.196 283.751 64.436 284.042 64.753C284.292 65.045 284.482 65.393 284.616 65.797C284.75 66.202 284.818 66.628 284.818 67.078C284.827 67.8866 284.672 68.6887 284.363 69.436C284.059 70.1541 283.618 70.8062 283.065 71.356C282.806 71.613 282.523 71.8444 282.22 72.047C281.934 72.246 281.636 72.4263 281.327 72.587C281.047 72.732 280.807 72.851 280.602 72.939C280.478 72.9931 280.354 73.0497 280.232 73.109L278.884 71.119C279.131 71.03 279.404 70.912 279.709 70.767C280.013 70.621 280.299 70.441 280.569 70.228C280.837 70.014 281.063 69.761 281.242 69.468C281.423 69.176 281.524 68.84 281.546 68.458C280.924 68.4688 280.318 68.2662 279.827 67.884C279.337 67.504 279.09 66.953 279.09 66.236V66.235ZM255.859 64.393H252.044L263.925 43.757H267.701L255.859 64.393ZM251.863 65.881C250.627 65.8815 249.682 66.8613 249.682 68.099C249.682 69.337 250.628 70.279 251.863 70.279C253.095 70.279 254.08 69.335 254.08 68.099C254.08 66.863 253.095 65.881 251.863 65.881ZM226.601 58.466L225.511 60.354C226.346 62.825 229.65 61.445 230.78 59.483L232.595 56.359C233.94 54.069 230.961 52.398 226.601 58.466ZM250.603 63.334C250.385 62.754 249.731 62.171 249.186 62.027L248.931 62.319C247.602 63.8785 246.075 65.2581 244.389 66.423C244.859 65.0118 245.106 63.3039 245.372 61.4575C245.784 58.5991 246.244 55.4087 247.657 52.473L244.822 50.946C244.544 51.3273 244.208 51.7973 243.823 52.3347L243.821 52.3384L243.82 52.339C242.043 54.8221 239.237 58.7431 236.43 62.027C236.434 62.033 236.439 62.0383 236.443 62.043L236.447 62.0471C236.449 62.0488 236.45 62.0504 236.451 62.052C236.445 62.0493 236.438 62.0451 236.431 62.0407C236.423 62.0353 236.414 62.0298 236.406 62.027L236.153 62.319C233.426 65.479 230.776 67.985 229.103 67.985C228.269 67.985 227.469 67.149 227.469 65.442V63.88C230.121 64.207 232.919 62.462 234.699 59.376L235.715 57.633C239.237 51.603 233.498 49.603 229.647 53.129L235.022 43.792H231.243L220.468 62.487C220.261 62.3035 220.029 62.1497 219.779 62.03L219.523 62.322C216.8 65.482 213.312 67.988 210.66 67.988C208.335 67.988 206.955 66.535 208.699 63.484L212.583 56.727C214.763 52.985 218.615 53.603 216.361 57.527L215.817 58.471H218.907L219.452 57.527C221.486 54.039 219.523 51.423 216.437 51.423C213.386 51.423 210.95 53.023 209.352 55.783L205.634 62.163L205.606 62.1462L205.576 62.1278L205.574 62.1271C205.515 62.0911 205.456 62.0549 205.401 62.031L205.146 62.323C202.422 65.483 199.771 67.989 198.099 67.989C197.263 67.989 196.793 67.409 197.663 65.919L205.729 51.786H201.949L195.23 63.52C192.357 66.135 190.145 67.588 189.416 67.262C188.54 66.8919 189.289 65.6458 189.78 64.8296C189.818 64.7659 189.855 64.7048 189.889 64.647L197.263 51.786H193.485L186.147 64.481C185.641 64.942 184.838 65.3725 184.114 65.7612C183.67 65.999 183.256 66.2211 182.957 66.425C183.428 65.0134 183.674 63.305 183.941 61.458V61.4577L183.941 61.4573C184.353 58.5995 184.814 55.4099 186.226 52.475L183.394 50.948C181.831 53.091 173.111 64.646 169.696 68.641C170.021 69.113 170.568 69.586 171.112 69.949C173.255 67.479 180.45 58.215 181.794 56.435C181.293 57.7533 181.051 59.4247 180.814 61.0629C180.345 64.2996 179.895 67.407 177.506 67.407C176.236 67.407 175.726 66.025 175.726 66.025L173.365 67.261C173.365 67.261 174.055 70.311 177.505 70.311C177.839 70.311 178.141 70.2809 178.469 70.2482L178.469 70.2481L178.561 70.239C178.57 70.239 178.579 70.2366 178.589 70.2329C178.597 70.2296 178.606 70.2253 178.614 70.221C178.632 70.212 178.65 70.203 178.667 70.203C180.587 69.949 183.245 69.065 185.027 67.833C185.015 69.37 185.943 70.311 187.527 70.311C189.595 70.311 191.922 68.422 193.737 66.679C193.376 68.714 194.572 70.311 196.972 70.311C199.318 70.311 201.931 68.425 204.409 65.948C204.443 68.458 206.377 70.311 209.535 70.311C212.601 70.311 215.649 68.598 218.276 66.295L216.171 69.949H219.987L224.31 62.429V65.443C224.31 68.675 224.927 70.311 227.98 70.311C231.103 70.311 234.701 66.97 237.825 63.336C237.819 63.326 237.807 63.315 237.805 63.302C237.809 63.3055 237.814 63.309 237.818 63.3124C237.829 63.3205 237.841 63.3282 237.852 63.336C239.565 61.362 241.117 59.2711 242.355 57.6019L242.356 57.6011L242.361 57.5938L242.379 57.5693C242.681 57.1621 242.965 56.7803 243.227 56.432C242.727 57.7498 242.486 59.4202 242.249 61.0576C241.78 64.2956 241.33 67.405 238.94 67.405C237.67 67.405 237.16 66.023 237.16 66.023L234.798 67.259C234.798 67.259 235.489 70.309 238.94 70.309C239.268 70.309 239.566 70.2795 239.892 70.2472L239.996 70.237C240.005 70.237 240.013 70.2347 240.022 70.2313L240.03 70.228C240.036 70.2255 240.041 70.2227 240.047 70.2199C240.065 70.211 240.083 70.202 240.101 70.202C243.954 69.69 247.769 66.64 250.602 63.332L250.603 63.334ZM135.829 62.248H136.012L138.772 57.526C141.06 53.601 137.428 51.821 134.775 56.326L132.959 59.414L130.089 64.391C127.836 68.315 132.16 68.895 133.939 65.845L133.976 65.772C133.758 65.41 133.613 64.975 133.613 64.503C133.613 63.265 134.594 62.248 135.829 62.248ZM110.582 76.379C109.782 77.796 108.51 77.579 108.51 76.563C108.51 75.583 109.419 74.457 112.325 73.329L110.582 76.379ZM75.737 67.952C77.299 67.952 79.552 66.244 81.84 62.649L84.781 57.489C86.635 54.073 82.603 53.166 80.568 56.688L75.301 65.881C74.43 67.372 74.902 67.952 75.737 67.952ZM69.786 47.899C70.912 45.972 72.148 45.137 73.201 45.137C74.619 45.137 75.272 46.081 75.272 47.462C75.272 50.986 70.908 58.295 65.1 57.343H64.337L69.786 47.899ZM162.309 62.285L162.563 61.993L162.564 61.994C163.074 62.212 163.727 62.794 163.982 63.305C160.856 66.938 157.262 70.28 154.136 70.28C151.083 70.28 149.958 67.703 151.556 64.904L156.46 56.366C158.096 53.568 155.516 52.625 149.739 59.855L143.963 69.918H140.148L142.688 65.524C141.002 66.454 139.134 66.974 137.754 66.974H136.919C132.681 72.332 125.653 71.129 126.173 65.852C122.921 69.071 119.807 71.03 116.648 72.024L113.742 77.002C111.02 81.652 105.46 80.888 105.46 77.255C105.46 74.423 108.657 72.314 113.78 70.79L115.851 67.23C114.142 68.754 112.073 70.28 110.256 70.28C108.374 70.28 107.415 68.948 107.868 66.87C105.694 68.86 103.461 70.28 101.428 70.28C98.377 70.28 97.251 67.704 98.849 64.904L103.753 56.37C105.388 53.571 102.808 52.628 97.031 59.858L91.255 69.921H87.441L88.833 67.51C86.891 69.159 84.923 70.283 83.113 70.283C81.189 70.283 80.025 69.268 79.845 67.814C78.028 69.303 76.139 70.283 74.613 70.283C71.938 70.283 70.742 68.302 71.565 65.928L71.3408 66.1412C68.851 68.5102 66.9878 70.283 62.884 70.283C57.544 70.283 55.983 65.199 58.634 60.621L59.759 58.657C56.709 57.059 55.001 54.152 55.001 51.139C55.001 48.593 56.198 46.017 58.888 44.089L60.123 46.307C58.489 47.577 57.689 49.321 57.689 51.064C57.689 53.172 58.853 55.279 61.069 56.442L66.955 46.305C68.661 43.327 71.132 41.873 73.203 41.873C75.999 41.873 78.216 44.088 78.216 47.503C78.216 48.993 77.743 50.736 76.69 52.589C73.711 57.784 69.133 59.856 65.1 59.856C64.339 59.856 63.648 59.779 62.958 59.672L61.903 61.524C59.653 65.376 61.214 67.955 63.793 67.955C67.4684 67.955 69.5519 65.5378 72.2059 62.4587L72.353 62.288L72.607 61.996C72.878 62.069 73.175 62.251 73.435 62.484L77.338 55.748C78.934 52.985 81.77 51.388 83.803 51.388C86.274 51.388 87.909 53.604 87.764 55.202H89.907L83.803 65.882C82.932 67.374 83.404 67.954 84.239 67.954C85.912 67.954 88.564 65.447 91.287 62.287L91.541 61.995C91.6658 62.0528 91.7858 62.1204 91.9 62.197L97.938 51.752H101.718L100.301 54.221C102.189 52.259 103.897 51.387 105.532 51.387C107.639 51.387 109.201 53.459 107.566 56.329L102.117 65.882C101.246 67.374 101.718 67.954 102.553 67.954C104.225 67.954 106.876 65.447 109.601 62.287L109.855 61.995C109.97 62.0488 110.081 62.1113 110.186 62.182L116.214 51.752H119.992L112.617 64.612L112.57 64.6918L112.506 64.7983C112.016 65.6155 111.271 66.8593 112.145 67.228C112.871 67.554 115.124 66.065 118.031 63.378L124.714 51.752H128.493L118.138 69.482C121.116 68.207 123.768 65.882 126.893 62.287L127.147 61.996C127.266 62.0502 127.38 62.1138 127.489 62.186L129.109 59.416L130.961 56.183C133.142 52.405 135.393 51.243 138.3 51.243C141.862 51.243 143.968 54.982 141.68 58.944L138.12 65.084C140.009 65.047 142.117 64.137 143.823 62.285L144.078 61.993C144.248 62.073 144.41 62.1702 144.56 62.283L150.648 51.75H154.427L153.01 54.219C154.9 52.257 156.605 51.386 158.241 51.386C160.346 51.386 161.912 53.457 160.276 56.327L154.826 65.88C153.955 67.372 154.426 67.952 155.262 67.952C156.934 67.952 159.587 65.445 162.309 62.285ZM281.194 26.421C278.904 30.162 276.579 31.942 274.982 31.942C274.147 31.942 273.675 31.362 274.545 29.872L279.812 20.679C281.847 17.155 285.879 18.064 284.026 21.479H284.061L281.194 26.421ZM238.903 31.942C240.464 31.942 242.717 30.234 245.007 26.64L247.948 21.479C249.8 18.064 245.768 17.155 243.734 20.679L238.466 29.872C237.596 31.362 238.067 31.942 238.903 31.942ZM205.09 40.37C204.293 41.787 203.02 41.57 203.02 40.554C203.02 39.573 203.892 38.447 206.799 37.32L205.09 40.37ZM216.535 9.129C215.48 9.129 214.245 9.963 213.118 11.889L207.67 21.334H208.433C218.06 23.564 222.529 9.129 216.535 9.129ZM290.782 25.986L290.527 26.276C287.807 29.436 285.153 31.943 283.48 31.943C282.645 31.943 282.173 31.363 283.043 29.872L295.832 7.74799H292.053L286.496 17.339C285.842 16.285 284.606 15.377 283.043 15.377C281.008 15.377 278.176 16.976 276.577 19.736L272.879 26.116C272.858 26.1036 272.836 26.0907 272.815 26.0779C272.757 26.0429 272.699 26.0081 272.645 25.984L272.39 26.276C269.667 29.436 267.39 31.942 265.718 31.942C264.881 31.942 264.411 31.362 265.28 29.872L270.73 20.317C272.367 17.447 270.802 15.375 268.696 15.375C267.06 15.375 265.356 16.246 263.464 18.21L264.881 15.74H261.102L255.065 26.187C254.95 26.1102 254.83 26.0423 254.705 25.984L254.449 26.276C251.726 29.436 249.075 31.942 247.403 31.942C246.568 31.942 246.097 31.362 246.967 29.872L253.07 19.19H250.926C251.072 17.592 249.438 15.375 246.966 15.375C244.931 15.375 242.096 16.974 240.498 19.733L236.846 26.039L236.64 26.273C233.918 29.432 230.89 31.938 229.22 31.938C228.383 31.938 227.913 31.358 228.783 29.868L232.561 23.257C233.868 20.967 233.25 19.624 232.016 18.134L229.91 15.59C229.365 14.9 229.365 14.137 230.128 13.41L228.166 11.267C226.022 13.194 225.841 15.336 227.184 17.08L227.513 17.516L227.379 17.7054L227.379 17.7059C225.721 20.0476 223.523 23.1531 221.116 25.981C221.157 26.0395 221.202 26.0977 221.25 26.1559L221.282 26.1941C221.295 26.21 221.309 26.2259 221.323 26.2418C221.34 26.2615 221.357 26.2812 221.374 26.301C218.261 29.881 215.615 32.196 212.644 33.463L217.439 25.253H213.661L213.262 25.908C211.264 29.432 208.974 31.939 206.032 31.939C203.452 31.939 202.982 29.36 205.232 25.509L206.287 23.657C206.995 23.7737 207.711 23.8343 208.429 23.838C221.872 23.838 228.375 5.85599 216.533 5.85599C214.461 5.85599 211.989 7.30998 210.283 10.288L204.398 20.423C202.182 19.262 201.02 17.155 201.02 15.048C201.02 13.305 201.82 11.56 203.452 10.29L202.219 8.07298C199.529 9.99899 198.331 12.577 198.331 15.12C198.331 18.136 200.04 21.042 203.091 22.64L201.964 24.603C199.312 29.181 199.784 34.266 205.126 34.266C206.724 34.266 208.067 33.794 209.231 33.066L208.248 34.776C203.128 36.336 199.966 38.407 199.966 41.241C199.966 44.873 205.526 45.637 208.248 40.987L211.155 36.01C215.08 34.775 218.931 32.087 223.073 27.291C223.006 27.1654 222.927 27.0465 222.837 26.936C224.515 24.965 225.939 23.062 228.787 19.19L229.294 19.809C229.767 20.425 229.948 21.189 229.512 21.953L225.515 28.89C223.916 31.685 225.043 34.264 228.095 34.264C229.994 34.264 232.443 33.025 234.48 31.24C234.436 32.978 235.624 34.264 237.779 34.264C239.304 34.264 241.194 33.284 243.009 31.794C243.192 33.248 244.356 34.264 246.279 34.264C248.089 34.264 250.056 33.139 251.999 31.49L250.607 33.902H254.42L260.197 23.837C265.974 16.608 268.554 17.553 266.917 20.35L262.014 28.888C260.417 31.686 261.541 34.264 264.592 34.264C266.602 34.264 268.428 32.88 270.574 30.931C270.374 32.824 271.578 34.264 273.856 34.264C275.381 34.264 277.27 33.284 279.088 31.794C279.27 33.249 280.433 34.264 282.357 34.264C285.482 34.264 289.077 30.923 292.202 27.288C291.946 26.784 291.293 26.203 290.782 25.986ZM182.281 21.48C184.535 17.556 180.682 16.939 178.502 20.681L176.068 24.931C177.484 25.439 179.919 25.513 181.736 22.424L182.281 21.48ZM175.451 34.268C179.738 34.268 183.991 30.927 187.113 27.293C186.86 26.783 186.205 26.203 185.696 25.985L185.443 26.277C182.717 29.437 179.23 31.943 176.576 31.943C174.251 31.943 172.871 30.49 174.614 27.438L174.977 26.785C177.412 27.801 181.989 27.33 184.823 22.425L185.368 21.481C187.403 17.992 185.441 15.377 182.352 15.377C179.302 15.377 176.868 16.975 175.269 19.736L171.59 26.049C171.552 26.029 171.514 26.001 171.478 25.985L171.223 26.277C168.499 29.437 165.848 31.943 164.176 31.943C163.34 31.943 162.87 31.363 163.739 29.872L169.189 20.317C170.824 17.447 169.261 15.375 167.153 15.375C165.518 15.375 163.774 16.284 161.887 18.246L167.917 7.74597H164.139L153.483 26.236C153.348 26.1376 153.203 26.0531 153.051 25.984L152.796 26.275C150.071 29.436 147.42 31.942 145.748 31.942C144.913 31.942 144.441 31.362 145.311 29.872L153.413 15.738H156.503L157.593 13.921H154.468L158.028 7.74597H154.25L150.69 13.921H147.275L146.185 15.738H149.635L142.042 28.891C140.444 31.69 141.57 34.268 144.621 34.268C146.499 34.268 148.547 33.055 150.561 31.304L149.062 33.904H152.877L158.617 23.912C164.43 16.61 167.01 17.555 165.375 20.352L160.47 28.89C158.872 31.688 159.998 34.266 163.05 34.266C165.346 34.266 167.896 32.461 170.326 30.061C170.436 32.492 172.359 34.268 175.451 34.268ZM51.756 21.479C54.01 17.555 50.16 16.938 47.98 20.68L45.545 24.929C46.961 25.438 49.397 25.511 51.212 22.423L51.756 21.479ZM71.099 29.871L76.367 20.68C78.401 17.154 82.434 18.063 80.58 21.479L77.638 26.638C75.35 30.233 73.095 31.942 71.534 31.942C70.7 31.942 70.227 31.361 71.099 29.872V29.871ZM128.859 21.479C131.113 17.555 127.263 16.938 125.083 20.68L122.648 24.929C124.064 25.437 126.499 25.511 128.314 22.423L128.859 21.479ZM67.2751 30.206C66.6481 32.446 67.8451 34.266 70.4091 34.266C71.9341 34.266 73.8241 33.286 75.6391 31.797C75.8221 33.25 76.9851 34.267 78.9091 34.267C80.9221 34.267 83.1271 32.877 85.2781 30.921C84.8601 32.963 85.8171 34.267 87.6781 34.267C89.7511 34.267 92.0761 32.377 93.8911 30.633C93.5271 32.669 94.7281 34.267 97.1251 34.267C100.25 34.267 103.845 30.925 106.97 27.291C106.954 27.2596 106.932 27.2279 106.909 27.1962C106.895 27.1774 106.882 27.1586 106.87 27.14C108.51 25.2321 109.998 23.2322 111.2 21.6173L111.2 21.617L111.201 21.6167C111.529 21.1759 111.835 20.7637 112.118 20.39C111.617 21.708 111.375 23.3793 111.138 25.0175V25.0177C110.669 28.2543 110.219 31.362 107.83 31.362C106.56 31.362 106.05 29.98 106.05 29.98L103.687 31.215C103.687 31.215 104.377 34.267 107.829 34.267C108.153 34.267 108.447 34.2375 108.766 34.2056L108.767 34.2056L108.883 34.194C108.902 34.194 108.92 34.1851 108.938 34.1763C108.956 34.1676 108.973 34.159 108.991 34.159C111.767 33.792 114.52 32.103 116.904 29.95C116.962 32.436 118.89 34.267 122.029 34.267C126.316 34.267 130.567 30.926 133.691 27.291C133.437 26.781 132.783 26.201 132.275 25.983L132.021 26.275C129.296 29.435 125.808 31.942 123.158 31.942C120.832 31.942 119.451 30.488 121.195 27.437L121.559 26.783C123.991 27.799 128.569 27.328 131.404 22.423L131.949 21.48C133.983 17.991 132.021 15.376 128.934 15.376C125.884 15.376 123.447 16.974 121.851 19.734L118.181 26.028C118.177 26.0266 118.173 26.025 118.169 26.0233C118.163 26.0209 118.158 26.0183 118.152 26.0156L118.133 26.0062C118.114 25.9965 118.096 25.9869 118.077 25.982L117.823 26.273C116.494 27.8332 114.967 29.2134 113.281 30.379C113.752 28.9672 113.999 27.2588 114.265 25.4117C114.678 22.5539 115.139 19.3642 116.551 16.428L113.718 14.902C113.434 15.2913 113.089 15.773 112.694 16.3246L112.693 16.3259L112.693 16.3263L112.693 16.3269C110.913 18.8115 108.12 22.713 105.325 25.982C105.358 26.028 105.399 26.073 105.435 26.12L105.3 26.273C102.576 29.433 99.9241 31.94 98.2521 31.94C97.4171 31.94 96.9451 31.36 97.8161 29.87L105.881 15.735H102.102L95.382 27.469C92.5121 30.085 90.2971 31.538 89.5681 31.211C88.6925 30.8414 89.4429 29.5934 89.9341 28.7764C89.9719 28.7135 90.0082 28.6532 90.0421 28.596L97.4151 15.736H93.6371L87.6241 26.141L87.59 26.1201C87.5037 26.0669 87.4184 26.0145 87.3371 25.98L87.0831 26.27C84.3581 29.43 81.7071 31.937 80.0351 31.937C79.2001 31.937 78.7281 31.357 79.5991 29.867L85.7021 19.185H83.5581C83.7041 17.587 82.0701 15.369 79.5981 15.369C77.5641 15.369 74.7301 16.969 73.132 19.729L69.3021 26.341C69.1255 26.197 68.9321 26.0751 68.7261 25.978L68.4721 26.268C65.7481 29.428 62.6141 31.935 59.9621 31.935C57.6381 31.935 56.2561 30.482 57.9991 27.431L61.8861 20.675C64.0661 16.933 67.9171 17.55 65.6631 21.473L65.1181 22.418H68.2081L68.7521 21.473C70.7861 17.986 68.8251 15.369 65.7381 15.369C62.6861 15.369 60.6041 16.969 59.0081 19.729L55.2521 26.172C55.1419 26.0979 55.0258 26.033 54.9051 25.978L54.6511 26.268C51.9271 29.428 48.7041 31.935 46.0531 31.935C43.7271 31.935 42.3461 30.482 44.0901 27.431L44.4531 26.777C46.8871 27.795 51.4651 27.322 54.2991 22.419L54.8441 21.473C56.8781 17.987 54.9161 15.37 51.8281 15.37C48.7781 15.37 46.3421 16.968 44.7451 19.73L40.7851 26.522C38.4221 30.555 40.4581 34.26 44.9251 34.26C48.2541 34.26 50.9381 32.245 53.7131 29.643C53.6151 32.28 55.5711 34.26 58.8341 34.26C61.9221 34.266 64.6341 32.532 67.2751 30.206ZM33.454 11.015L30.403 16.246V16.247C34.254 16.174 36.399 15.338 37.849 12.614C39.739 9.05299 36.214 6.258 33.454 11.015ZM26.335 33.466C24.082 33.466 22.302 32.958 20.885 32.16C21.539 31.396 22.192 30.451 22.775 29.471L29.131 18.463L30.148 18.571C39.014 20.426 35.489 33.466 26.335 33.466ZM35.672 17.9906C43.3001 15.4102 43.8807 5.85599 36.361 5.85599C34.29 5.85599 31.82 7.30899 30.113 10.288L19.94 27.872C19.5203 28.6272 19.0344 29.3436 18.488 30.013C15.872 26.418 16.635 21.042 20.304 18.679L18.777 16.753C10.857 21.803 13.183 36.37 26.407 36.37C37.7065 36.372 42.9366 22.8242 35.672 17.9906Z" fill="white"/>
</svg>
