<svg width="24" height="24" viewBox="0 0 24 24" fill="none" xmlns="http://www.w3.org/2000/svg">
<path fill-rule="evenodd" clip-rule="evenodd" d="M17.6248 3.02498H20.3343C21.2543 3.02498 22 3.84698 22 4.86198V21.164C22 22.179 21.2543 23 20.3343 23H3.66667C2.74667 23 2 22.179 2 21.164V4.86198C2 3.84698 2.74667 3.02498 3.66667 3.02498H6.37429V1.64798C6.37429 1.26698 6.65429 0.958984 7 0.958984C7.34476 0.958984 7.62476 1.26698 7.62476 1.64798V3.02498H11.3752V1.64798C11.3752 1.26698 11.6552 0.958984 12.001 0.958984C12.3448 0.958984 12.6248 1.26698 12.6248 1.64798V3.02498H16.3752V1.64798C16.3752 1.26698 16.6543 0.958984 17 0.958984C17.3448 0.958984 17.6248 1.26698 17.6248 1.64798V3.02498ZM20.6329 21.4841C20.711 21.398 20.7533 21.2829 20.7505 21.1641L20.7514 4.86208C20.7514 4.60908 20.5647 4.40308 20.3352 4.40308H17.6257V5.78108C17.6257 6.16208 17.3457 6.47008 17.0009 6.47008C16.6552 6.47008 16.3762 6.16208 16.3762 5.78108V4.40308H12.6257V5.78108C12.6257 6.16208 12.3457 6.47008 12.0019 6.47008C11.6562 6.47008 11.3762 6.16208 11.3762 5.78108V4.40308H7.6257V5.78108C7.6257 6.16208 7.3457 6.47008 7.00094 6.47008C6.65522 6.47008 6.37522 6.16208 6.37522 5.78108V4.40308H3.66665C3.43106 4.40962 3.24471 4.61467 3.24951 4.86208V21.1641C3.24471 21.4115 3.43106 21.6165 3.66665 21.6231H20.3343C20.4474 21.6202 20.5549 21.5702 20.6329 21.4841Z" fill="#A9A9A9"/>
<path fill-rule="evenodd" clip-rule="evenodd" d="M6 9.2251H8.66678V11.2911H6V9.2251ZM6 12.6682H8.66678V14.7352H6V12.6682ZM8.66678 16.1121H6V18.1781H8.66678V16.1121ZM10.6671 16.1121H13.3339V18.1781H10.6671V16.1121ZM13.3339 12.6682H10.6671V14.7352H13.3339V12.6682ZM10.6671 9.2251H13.3339V11.2911H10.6671V9.2251ZM18 16.1121H15.3332V18.1781H18V16.1121ZM15.3332 12.6682H18V14.7352H15.3332V12.6682ZM18 9.2251H15.3332V11.2911H18V9.2251Z" fill="#A9A9A9"/>
</svg>
