<svg width="458" height="78" viewBox="0 0 458 78" fill="none" xmlns="http://www.w3.org/2000/svg">
<path fill-rule="evenodd" clip-rule="evenodd" d="M9.78903 52.348C9.78903 52.27 9.75003 52.193 9.67303 52.115L0.384033 66.98C3.86703 70.154 7.85403 72.709 12.344 74.644C16.835 76.503 21.402 77.51 26.047 77.664H27.325C28.4516 77.6612 29.5767 77.5837 30.693 77.432C31.8633 77.3536 33.0271 77.1986 34.177 76.968C35.5792 76.6558 36.973 76.307 38.357 75.922C39.7429 75.4609 41.1002 74.9183 42.422 74.297C45.983 72.361 48.809 69.574 50.899 65.935C53.067 62.296 54.383 58.464 54.847 54.438V53.161C54.925 52.697 54.963 52.232 54.963 51.767V51.186C54.886 47.161 53.763 43.367 51.596 39.806C49.428 36.167 46.176 33.574 41.841 32.026C40.912 31.716 39.751 31.406 38.357 31.096C36.963 30.709 35.531 30.322 34.061 29.935C32.28 29.393 30.576 28.851 28.951 28.309C27.324 27.69 26.086 27.032 25.234 26.335C24.77 25.948 24.344 25.522 23.957 25.058C23.57 24.593 23.299 24.09 23.144 23.548C22.989 23.315 22.873 23.083 22.796 22.851V22.154C22.796 20.606 23.57 19.173 25.118 17.857C26.667 16.464 28.331 15.651 30.111 15.419H31.041C33.751 15.419 36.267 15.999 38.589 17.161C40.9096 18.3207 43.1246 19.6805 45.209 21.225L51.596 6.94099C49.273 5.46999 46.718 4.19299 43.931 3.10899C41.2744 2.03987 38.51 1.26101 35.686 0.785994C34.6068 0.631763 33.5225 0.515691 32.435 0.437994C31.428 0.282994 30.422 0.205994 29.415 0.205994C25.157 0.205994 21.054 1.09599 17.105 2.87699C13.234 4.65699 10.06 7.59899 7.58203 11.703C6.73103 12.941 6.03403 14.335 5.49203 15.883C4.96015 17.3915 4.57144 18.9467 4.33103 20.528C4.17603 21.148 4.06003 21.767 3.98303 22.386V25.173C3.98875 25.448 4.0277 25.7213 4.09903 25.987C4.17195 26.8821 4.28809 27.7731 4.44703 28.657C4.66905 29.4729 4.9014 30.286 5.14403 31.096C6.38303 34.967 8.66603 37.948 11.996 40.038C15.3115 42.0453 18.9145 43.5335 22.68 44.451C22.757 44.451 22.834 44.49 22.912 44.567H23.144C23.8862 44.7339 24.622 44.9277 25.35 45.148C26.1794 45.3182 26.9947 45.5509 27.789 45.844C29.9011 46.6306 31.8645 47.7693 33.596 49.212C35.453 50.606 36.383 52.348 36.383 54.438C36.383 54.825 36.344 55.251 36.267 55.715C36.189 56.18 36.073 56.683 35.918 57.225L35.453 58.154C34.834 59.16 33.943 60.012 32.783 60.709C31.7235 61.3958 30.54 61.869 29.299 62.102C28.989 62.18 28.641 62.257 28.253 62.335H26.976C26.899 62.257 26.821 62.219 26.744 62.219H26.395C26.318 62.142 26.241 62.102 26.163 62.102C22.757 61.947 19.737 60.902 17.105 58.967C14.473 56.954 12.111 54.786 10.021 52.464C9.94403 52.386 9.86703 52.348 9.78903 52.348ZM210.703 20.966C214.264 14.386 219.219 9.35301 225.567 5.86901C231.915 2.38501 238.535 0.643005 245.425 0.643005C246.354 0.643005 247.283 0.682005 248.212 0.759005C249.219 0.837005 250.186 0.914005 251.115 0.992005C254.007 1.38574 256.849 2.08636 259.593 3.08201C262.445 4.08223 265.173 5.40692 267.722 7.03001C273.219 10.592 277.477 15.353 280.496 21.314C283.515 27.198 285.025 33.354 285.025 39.778C285.025 40.552 284.986 41.365 284.909 42.217C284.909 42.991 284.831 43.765 284.676 44.54C284.516 46.1907 284.205 47.8232 283.747 49.417C283.349 50.9977 282.845 52.5496 282.237 54.062C278.986 61.572 273.915 67.417 267.025 71.597C260.135 75.7 252.895 77.752 245.309 77.752C244.765 77.7519 244.222 77.7132 243.683 77.636H242.173C239.506 77.3974 236.864 76.9311 234.276 76.242C231.704 75.5383 229.212 74.5653 226.844 73.339C220.341 69.933 215.231 65.094 211.515 58.823C207.799 52.475 205.941 45.894 205.941 39.081C205.941 38.075 205.98 37.068 206.057 36.061C206.134 35.055 206.289 34.011 206.522 32.926C206.919 30.8767 207.462 28.8586 208.147 26.887C208.824 24.8423 209.679 22.8607 210.702 20.965L210.703 20.966ZM263.542 47.559C263.774 46.785 263.968 45.972 264.122 45.12C264.355 44.269 264.51 43.417 264.587 42.565C264.665 42.024 264.703 41.482 264.703 40.94C264.781 40.398 264.819 39.894 264.819 39.43C264.819 38.9629 264.78 38.4967 264.703 38.036V36.643C264.316 33.313 263.31 30.101 261.683 27.004C260.058 23.907 257.813 21.507 254.948 19.804C254.174 19.417 253.4 19.069 252.626 18.759C251.852 18.449 251.077 18.179 250.303 17.946C249.535 17.7922 248.76 17.6761 247.981 17.598C247.216 17.4438 246.438 17.3658 245.658 17.365C241.71 17.365 238.071 18.605 234.742 21.082C231.413 23.559 229.09 26.849 227.774 30.952L227.542 31.417V31.881C227.303 32.6039 227.109 33.341 226.962 34.088C226.807 34.785 226.652 35.52 226.497 36.294L226.265 37.92V40.359C226.265 40.591 226.303 40.862 226.381 41.172C226.613 45.275 227.851 49.185 230.097 52.901C232.419 56.539 235.594 58.939 239.619 60.101L241.013 60.565C241.477 60.643 241.981 60.72 242.523 60.797L243.916 61.03H245.31C249.413 61.03 253.09 59.83 256.342 57.43C259.671 54.952 262.071 51.662 263.542 47.559ZM181.386 68.982C177.747 71.459 173.799 73.162 169.541 74.092C165.283 75.022 160.986 75.602 156.651 75.834C155.414 75.9113 154.175 75.95 152.935 75.95H129.129V1.97598H154.213C155.452 1.97598 156.652 2.01398 157.813 2.09198C161.993 2.32398 166.097 2.90498 170.123 3.83398C174.189 4.746 178.023 6.48545 181.387 8.94398C185.722 11.963 189.09 15.95 191.49 20.904C193.89 25.859 195.245 30.968 195.554 36.234C195.632 36.698 195.671 37.162 195.671 37.627V40.53C195.438 46.027 194.122 51.33 191.722 56.44C189.322 61.55 185.876 65.73 181.386 68.982ZM148.986 59.343C149.218 59.343 149.451 59.382 149.683 59.459H150.496C150.806 59.459 151.076 59.499 151.309 59.576H154.444C155.296 59.498 156.109 59.421 156.883 59.343C158.887 59.1898 160.87 58.8398 162.805 58.298C164.741 57.756 166.483 56.943 168.031 55.859C170.509 54.079 172.328 51.679 173.489 48.659C174.721 45.5954 175.352 42.3231 175.347 39.021V38.091C175.347 37.782 175.309 37.472 175.231 37.163C175.079 34.23 174.369 31.3528 173.141 28.685C171.902 25.898 170.199 23.692 168.031 22.065C166.441 20.767 164.574 19.8533 162.573 19.395C160.592 18.9243 158.569 18.6519 156.534 18.582H148.986V59.343ZM380.74 75.95L406.172 1.97598H431.372L457.036 75.95H436.83L433.114 62.595H404.546L400.714 75.95H380.74ZM416.392 23.808L408.844 48.311H428.934L421.385 23.808C420.987 22.6117 420.6 21.4116 420.224 20.208C419.924 18.937 419.653 17.6593 419.411 16.376C419.256 15.911 419.14 15.486 419.063 15.098C418.985 14.634 418.908 14.208 418.83 13.821C418.753 14.208 418.637 14.634 418.482 15.098C418.405 15.485 418.327 15.911 418.25 16.376C418.172 16.531 418.134 16.686 418.134 16.84C418.134 16.918 418.094 17.034 418.017 17.189C417.792 18.3218 417.521 19.4451 417.205 20.556C416.971 21.6488 416.699 22.7334 416.392 23.808ZM298.712 75.95V1.97598H318.222L346.093 39.95C346.813 41.0751 347.472 42.2381 348.067 43.434C348.771 44.6083 349.429 45.8092 350.041 47.034L351.435 50.054C351.899 51.06 352.364 52.027 352.828 52.956C352.755 52.1377 352.639 51.3239 352.48 50.518C352.403 49.744 352.325 48.931 352.248 48.079C352.09 46.4953 351.974 44.9077 351.899 43.318C351.819 41.6545 351.78 39.9894 351.783 38.324V1.97598H371.176V75.95H351.783L323.68 37.744C322.906 36.815 322.17 35.731 321.474 34.493C320.77 33.161 320.111 31.8052 319.5 30.428C319.05 29.4531 318.586 28.4853 318.106 27.525C317.747 26.5847 317.359 25.6553 316.945 24.738C317.332 27.138 317.642 29.577 317.874 32.054C318.106 34.531 318.216 37.009 318.222 39.486V75.95H298.712ZM69.076 75.949V1.97501H114.482V18.117H88.9341V31.007H112.973V46.801H88.9341V59.343H114.482V75.949H69.076Z" fill="white"/>
</svg>
